<?xml version="1.0" encoding="utf-8"?>
<!-- Svg Vector Icons : http://www.onlinewebfonts.com/icon -->
<!DOCTYPE svg PUBLIC "-//W3C//DTD SVG 1.1//EN" "http://www.w3.org/Graphics/SVG/1.1/DTD/svg11.dtd">
<svg version="1.1" xmlns="http://www.w3.org/2000/svg" xmlns:xlink="http://www.w3.org/1999/xlink" x="0px" y="0px" viewBox="0 0 1000 1000" enable-background="new 0 0 1000 1000" xml:space="preserve">
<metadata> Svg Vector Icons : http://www.onlinewebfonts.com/icon </metadata>
<g><path d="M979.7,402.1l-280,280c-19.7,23-61.3,4.9-59.6-24.6v-140H517.6c-35.6,0-67.8,1.1-96.3,3.3c-56.3,4.4-115.4,15.3-157,35c-41,19.7-78.8,50.3-101.2,93.5C140.7,691.4,127,750,127,823.8c0,20.2,1.1,42.7,2.7,67.3c0,4.4,2.7,20.8,2.7,27.3c0,10.9-6.6,19.1-17.5,19.1c-6,0-10.9-3.3-15.3-9.3c-6-7.7-16.4-32.3-20.2-41.6C33,782.8,10,700.7,10,640c0-72.7,9.8-133.5,29-182.1c59.1-147.1,218.8-220.4,478.6-220.4h122.5v-140c-1.6-29.5,39.9-47.6,59.6-24.6l280,280C993.4,366.6,993.4,388.4,979.7,402.1z"/></g>
</svg>