<?xml version="1.0" encoding="UTF-8"?>
<!DOCTYPE svg PUBLIC "-//W3C//DTD SVG 1.1//EN" "http://www.w3.org/Graphics/SVG/1.1/DTD/svg11.dtd">
<svg xmlns="http://www.w3.org/2000/svg" version="1.1" width="1076px" height="160px" style="shape-rendering:geometricPrecision; text-rendering:geometricPrecision; image-rendering:optimizeQuality; fill-rule:evenodd; clip-rule:evenodd" xmlns:xlink="http://www.w3.org/1999/xlink">
<g><path style="opacity:0.991" fill="#737476" d="M 57.5,16.5 C 71.037,15.5878 83.7037,18.4211 95.5,25C 104.844,32.1984 109.511,41.6984 109.5,53.5C 104.154,54.5326 98.8204,54.5326 93.5,53.5C 91.0059,40.1719 83.0059,33.0052 69.5,32C 59.7312,30.7728 50.7312,32.7728 42.5,38C 35.8431,45.3737 35.8431,52.707 42.5,60C 47.2609,62.5872 52.2609,64.5872 57.5,66C 69.772,68.401 81.772,71.7343 93.5,76C 109.473,84.112 115.639,96.9454 112,114.5C 107.359,127.805 98.1923,136.305 84.5,140C 65.7581,144.301 48.0915,141.634 31.5,132C 21.8093,123.774 16.8093,113.274 16.5,100.5C 21.8463,99.4674 27.1796,99.4674 32.5,100.5C 35.334,114.833 44.0006,123.333 58.5,126C 69.4405,127.822 79.7738,126.156 89.5,121C 96.0233,115.996 98.19,109.496 96,101.5C 95.1166,98.8976 93.6166,96.7309 91.5,95C 86.6151,91.7027 81.2817,89.3694 75.5,88C 64.3683,85.4672 53.3683,82.4672 42.5,79C 25.9885,72.8091 19.1552,60.9758 22,43.5C 24.9638,31.8676 32.1305,24.0343 43.5,20C 48.2242,18.5058 52.8909,17.3391 57.5,16.5 Z"/></g>
<g><path style="opacity:0.948" fill="#009933" d="M 619.5,18.5 C 627.86,18.1688 636.193,18.5021 644.5,19.5C 655.765,52.7964 666.932,86.1297 678,119.5C 689.808,85.91 701.308,52.2434 712.5,18.5C 720.167,18.5 727.833,18.5 735.5,18.5C 735.5,58.8333 735.5,99.1667 735.5,139.5C 729.833,139.5 724.167,139.5 718.5,139.5C 718.667,107.832 718.5,76.1649 718,44.5C 706.859,76.0899 696.026,107.757 685.5,139.5C 679.907,139.807 674.407,139.473 669,138.5C 657.802,105.907 646.802,73.2408 636,40.5C 635.5,73.4983 635.333,106.498 635.5,139.5C 630.167,139.5 624.833,139.5 619.5,139.5C 619.5,99.1667 619.5,58.8333 619.5,18.5 Z"/></g>
<g><path style="opacity:0.935" fill="#009933" d="M 906.5,18.5 C 911.833,18.5 917.167,18.5 922.5,18.5C 922.5,58.8333 922.5,99.1667 922.5,139.5C 917.5,139.5 912.5,139.5 907.5,139.5C 907.664,136.813 907.497,134.146 907,131.5C 898.479,140.893 887.979,144.06 875.5,141C 862.241,137.673 853.407,129.506 849,116.5C 842.716,96.4912 845.382,77.8246 857,60.5C 870.347,49.0209 884.847,47.1875 900.5,55C 902.333,56.8333 904.167,58.6667 906,60.5C 906.5,46.504 906.667,32.504 906.5,18.5 Z M 879.5,63.5 C 895.444,62.9362 904.61,70.6028 907,86.5C 908.06,95.9789 907.393,105.312 905,114.5C 898.007,128.387 887.507,131.887 873.5,125C 865.127,117.241 861.127,107.575 861.5,96C 861.243,84.7626 864.909,75.0959 872.5,67C 874.925,65.7874 877.259,64.6207 879.5,63.5 Z"/></g>
<g><path style="opacity:0.929" fill="#009933" d="M 945.5,18.5 C 950.5,18.5 955.5,18.5 960.5,18.5C 960.5,24.5 960.5,30.5 960.5,36.5C 955.5,36.5 950.5,36.5 945.5,36.5C 945.5,30.5 945.5,24.5 945.5,18.5 Z"/></g>
<g><path style="opacity:0.994" fill="#737476" d="M 216.5,18.5 C 221.5,18.5 226.5,18.5 231.5,18.5C 231.5,24.5 231.5,30.5 231.5,36.5C 226.5,36.5 221.5,36.5 216.5,36.5C 216.5,30.5 216.5,24.5 216.5,18.5 Z"/></g>
<g><path style="opacity:0.987" fill="#737476" d="M 166.5,49.5 C 186.346,49.4069 198.679,58.9069 203.5,78C 198.181,79.5975 192.848,80.0975 187.5,79.5C 182.033,64.104 171.7,59.604 156.5,66C 147.031,73.6194 142.698,83.6194 143.5,96C 143.413,104.823 145.58,112.99 150,120.5C 158.172,128.867 167.672,130.701 178.5,126C 184.836,121.496 188.17,115.329 188.5,107.5C 193.833,107.833 199.167,108.167 204.5,108.5C 199.552,133.821 184.219,144.655 158.5,141C 142.229,137.062 132.396,126.896 129,110.5C 125.657,94.2313 127.99,78.8979 136,64.5C 144.222,55.3046 154.389,50.3046 166.5,49.5 Z"/></g>
<g><path style="opacity:0.99" fill="#737476" d="M 289.5,49.5 C 308.693,50.205 321.526,59.5383 328,77.5C 329.879,85.0511 330.713,92.7177 330.5,100.5C 308.833,100.5 287.167,100.5 265.5,100.5C 268.797,124.47 281.797,132.637 304.5,125C 308.798,120.903 311.965,116.069 314,110.5C 319.074,111.565 324.241,112.231 329.5,112.5C 326.434,128.067 317.1,137.567 301.5,141C 273.698,145.706 256.532,134.539 250,107.5C 247.608,92.967 249.942,79.3003 257,66.5C 265.18,55.6607 276.014,49.9941 289.5,49.5 Z M 284.5,63.5 C 302.037,62.0402 311.704,70.0402 313.5,87.5C 297.833,87.5 282.167,87.5 266.5,87.5C 267.637,75.7143 273.637,67.7143 284.5,63.5 Z"/></g>
<g><path style="opacity:0.994" fill="#737476" d="M 386.5,49.5 C 396.647,49.6012 405.481,52.9346 413,59.5C 415.637,63.0716 417.303,67.0716 418,71.5C 418.5,94.1642 418.667,116.831 418.5,139.5C 413.5,139.5 408.5,139.5 403.5,139.5C 403.918,118.131 403.418,96.7978 402,75.5C 399.212,67.5925 393.545,63.5925 385,63.5C 373.777,64.065 366.777,69.7317 364,80.5C 362.621,100.136 362.121,119.803 362.5,139.5C 357.5,139.5 352.5,139.5 347.5,139.5C 347.5,110.167 347.5,80.8333 347.5,51.5C 352.167,51.5 356.833,51.5 361.5,51.5C 361.335,55.1817 361.501,58.8484 362,62.5C 368.314,54.5939 376.481,50.2605 386.5,49.5 Z"/></g>
<g><path style="opacity:0.987" fill="#737476" d="M 474.5,49.5 C 494.346,49.4069 506.679,58.9069 511.5,78C 506.181,79.5975 500.848,80.0975 495.5,79.5C 490.033,64.104 479.7,59.604 464.5,66C 455.031,73.6194 450.698,83.6194 451.5,96C 451.413,104.823 453.58,112.99 458,120.5C 466.172,128.867 475.672,130.701 486.5,126C 492.836,121.496 496.17,115.329 496.5,107.5C 501.833,107.833 507.167,108.167 512.5,108.5C 507.552,133.821 492.219,144.655 466.5,141C 450.229,137.062 440.396,126.896 437,110.5C 433.657,94.2313 435.99,78.8979 444,64.5C 452.222,55.3046 462.389,50.3046 474.5,49.5 Z"/></g>
<g><path style="opacity:0.99" fill="#737476" d="M 559.5,49.5 C 578.693,50.205 591.526,59.5383 598,77.5C 599.879,85.0511 600.713,92.7177 600.5,100.5C 578.833,100.5 557.167,100.5 535.5,100.5C 538.797,124.47 551.797,132.637 574.5,125C 578.798,120.903 581.965,116.069 584,110.5C 589.074,111.565 594.241,112.231 599.5,112.5C 596.434,128.067 587.1,137.567 571.5,141C 543.698,145.706 526.532,134.539 520,107.5C 517.608,92.967 519.942,79.3003 527,66.5C 535.18,55.6607 546.014,49.9941 559.5,49.5 Z M 554.5,63.5 C 572.037,62.0402 581.704,70.0402 583.5,87.5C 567.833,87.5 552.167,87.5 536.5,87.5C 537.637,75.7143 543.637,67.7143 554.5,63.5 Z"/></g>
<g><path style="opacity:0.944" fill="#009933" d="M 793.5,49.5 C 812.693,50.205 825.526,59.5383 832,77.5C 833.879,85.0511 834.713,92.7177 834.5,100.5C 812.833,100.5 791.167,100.5 769.5,100.5C 772.797,124.47 785.797,132.637 808.5,125C 812.798,120.903 815.965,116.069 818,110.5C 823.074,111.565 828.241,112.231 833.5,112.5C 830.434,128.067 821.1,137.567 805.5,141C 777.698,145.706 760.532,134.539 754,107.5C 751.608,92.967 753.942,79.3003 761,66.5C 769.18,55.6607 780.014,49.9941 793.5,49.5 Z M 788.5,63.5 C 806.037,62.0402 815.704,70.0402 817.5,87.5C 801.833,87.5 786.167,87.5 770.5,87.5C 771.637,75.7143 777.637,67.7143 788.5,63.5 Z"/></g>
<g><path style="opacity:0.947" fill="#009934" d="M 1018.5,49.5 C 1029.19,49.0865 1038.86,51.9198 1047.5,58C 1050.49,61.6282 1052.32,65.7949 1053,70.5C 1053.33,87.8333 1053.67,105.167 1054,122.5C 1054.03,128.437 1055.53,133.937 1058.5,139C 1052.8,139.83 1047.14,139.663 1041.5,138.5C 1040.23,135.627 1039.39,132.627 1039,129.5C 1027.12,140.011 1013.29,143.844 997.5,141C 981.5,136.517 975,126.017 978,109.5C 981.664,99.8366 988.497,93.6699 998.5,91C 1008.83,89.3335 1019.17,87.6669 1029.5,86C 1032.15,85.5477 1034.65,84.7143 1037,83.5C 1039.23,72.7767 1035.06,66.2767 1024.5,64C 1017.29,62.887 1010.29,63.5537 1003.5,66C 998.702,69.2173 996.035,73.7173 995.5,79.5C 990.823,79.1655 986.156,78.6655 981.5,78C 980.692,77.6924 980.025,77.1924 979.5,76.5C 981.612,66.2329 987.278,58.7329 996.5,54C 1003.78,51.5207 1011.12,50.0207 1018.5,49.5 Z M 1036.5,96.5 C 1040.03,116.5 1031.53,127.5 1011,129.5C 1001.51,129.858 995.675,125.525 993.5,116.5C 994.077,112.179 996.077,108.679 999.5,106C 1011.92,102.826 1024.26,99.6593 1036.5,96.5 Z"/></g>
<g><path style="opacity:0.975" fill="#009933" d="M 945.5,51.5 C 950.5,51.5 955.5,51.5 960.5,51.5C 960.5,80.8333 960.5,110.167 960.5,139.5C 955.5,139.5 950.5,139.5 945.5,139.5C 945.5,110.167 945.5,80.8333 945.5,51.5 Z"/></g>
<g><path style="opacity:0.994" fill="#737476" d="M 216.5,51.5 C 221.5,51.5 226.5,51.5 231.5,51.5C 231.5,80.8333 231.5,110.167 231.5,139.5C 226.5,139.5 221.5,139.5 216.5,139.5C 216.5,110.167 216.5,80.8333 216.5,51.5 Z"/></g>
</svg>
